<svg xmlns="http://www.w3.org/2000/svg" xmlns:xlink="http://www.w3.org/1999/xlink" width="79.355" height="37.266" viewBox="0 0 79.355 37.266"><defs><style>.a{fill-rule:evenodd;fill:url(#a);}</style><linearGradient id="a" x1="0.5" x2="0.5" y2="1" gradientUnits="objectBoundingBox"><stop offset="0" stop-color="#ed1500"/><stop offset="1" stop-color="#d70900"/></linearGradient></defs><path class="a" d="M73.459,35.263l.028-.028v.987a1.206,1.206,0,0,1-.9.451c-.4,0-.677-.141-.677-.592,0-.677.733-.846,1.128-.846.056,0,.282.028.423.028Zm-41.356,0c.028.028.056.028.085-.028v.959a1.206,1.206,0,0,1-.931.48c-.367,0-.649-.113-.649-.564,0-.677.677-.874,1.1-.874a2.306,2.306,0,0,1,.395.028Zm-3.611.254c0,.931-.705,1.044-1.326,1.044a3.259,3.259,0,0,1-.48-.028v-2a3.35,3.35,0,0,0,.536,0c.705,0,1.269.141,1.269.987Zm-6.573-1.326v2.144a1.038,1.038,0,0,1-.705.31c-.959,0-1.213-.677-1.213-1.382a1.286,1.286,0,0,1,1.185-1.439.82.82,0,0,1,.733.367Zm-4.57-.339a1.146,1.146,0,0,1,.677.762v.141H15.939V34.67a1.046,1.046,0,0,1,1.072-.846,1.618,1.618,0,0,1,.339.028Zm31.99,1.354c0,.564-.169,1.439-1.043,1.439-.9,0-.988-.9-.988-1.41S47.45,33.8,48.324,33.8,49.339,34.67,49.339,35.206ZM66.6,33.288v3.893h-.677V33.852h-.536v-.564Zm-55.235,0v3.893h-.705V33.852h-.536v-.564ZM58,35.489h-1.5l.79-2.229ZM73.6,33.4c.367.141.621.846.621,1.157v1.834a.671.671,0,0,0,.31.508v.339h-.339c-.225-.056-.564-.254-.62-.48a1.751,1.751,0,0,1-1.241.508A1.143,1.143,0,0,1,71.2,36.081c0-1.044,1.128-1.41,1.806-1.41.056,0,.31.056.479.085a.21.21,0,0,0,.028-.141.772.772,0,0,0-.875-.79,1.316,1.316,0,0,0-.931.339,2.341,2.341,0,0,1-.31-.564c0-.056.254-.2.367-.226a1.626,1.626,0,0,1,.479-.141,1.738,1.738,0,0,1,.367-.028,2.927,2.927,0,0,1,.987.2Zm-2.962.2c-.085.141-.2.31-.311.48A1.6,1.6,0,0,0,69.4,33.8c-.988,0-1.213.846-1.213,1.467,0,.818.4,1.411,1.241,1.411a1.841,1.841,0,0,0,.959-.367l.282.564a3.05,3.05,0,0,1-1.382.395,1.847,1.847,0,0,1-1.806-1.5c0-.056-.028-.169-.028-.226v-.536A1.854,1.854,0,0,1,69.425,33.2a2.471,2.471,0,0,1,1.213.395Zm-5.558-.339-.254.677a2.7,2.7,0,0,0-.479-.141,1.02,1.02,0,0,0-.9.9v2.483H62.74V33.288h.705a3.445,3.445,0,0,0,.028.536,1.167,1.167,0,0,1,1.072-.621,4.98,4.98,0,0,1,.536.056ZM53.2,33.316c-.084.226-.169.423-.254.621a2.7,2.7,0,0,0-.479-.141,1.02,1.02,0,0,0-.9.9v2.483h-.705V33.288h.705a3.446,3.446,0,0,0,.028.536,1.167,1.167,0,0,1,1.072-.621,2.726,2.726,0,0,1,.536.113Zm-3.131,1.89c0,.987-.423,2.059-1.749,2.059a1.82,1.82,0,0,1-1.777-2.059,1.81,1.81,0,0,1,1.777-2C49.678,33.2,50.073,34.247,50.073,35.206ZM36.137,33.232c.48,0,.931.705.931,1.128v2.821h-.677V34.614a.746.746,0,0,0-.79-.818c-.085,0-.141-.028-.169,0-.169.028-.762.282-.762.508v2.877h-.677V33.288h.48c.056.141.141.31.2.451A1.358,1.358,0,0,1,35.8,33.2c.056,0,.226.028.339.028Zm-3.385.733c.028.141.141.367.141.451V36.25c.056.169.028.48.31.649v.339h-.31c-.2-.028-.564-.2-.621-.48-.169.339-.987.508-1.269.508a1.161,1.161,0,0,1-1.128-1.185c0-1.044,1.128-1.41,1.805-1.41.056,0,.339.056.508.085.028-.028.028-.028.028-.113a.785.785,0,0,0-.875-.818,1.239,1.239,0,0,0-.931.339,1.44,1.44,0,0,1-.339-.564,2.315,2.315,0,0,1,1.241-.395c.395,0,1.241.113,1.439.762Zm-14.02.9a2.607,2.607,0,0,1-.028.423H15.882v.226a1.191,1.191,0,0,0,1.241,1.157,1.589,1.589,0,0,0,.959-.339c.113.141.2.31.31.48a2.618,2.618,0,0,1-1.411.451,1.849,1.849,0,0,1-1.834-2A1.9,1.9,0,0,1,16.983,33.2a1.579,1.579,0,0,1,1.749,1.664ZM8.689,33.316a1.563,1.563,0,0,1,.395.367,2.626,2.626,0,0,1,.254.677v2.821H8.661V34.614c-.113-.649-.339-.818-.79-.818a1.129,1.129,0,0,0-.931.508v2.877H6.263V33.288h.48c.056.141.141.31.2.451A1.358,1.358,0,0,1,8.068,33.2a2.22,2.22,0,0,1,.621.113Zm19.521-.169c0,.733-.621.818-1.1.818h-.423V32.442h.451c.423,0,1.072,0,1.072.705Zm-14.81.141h1.072v.536H13.4v2.2c.141.508.339.649.677.649a3.253,3.253,0,0,0,.564-.141c.028.2.085.423.113.621-.31.056-.875.113-.959.113a1.161,1.161,0,0,1-1.1-1.1V33.824h-.451v-.536h.451V32.47a7.044,7.044,0,0,1,.705-.254v1.072ZM2.2,31.849V35.46c.113.846.564,1.157,1.128,1.157a1.163,1.163,0,0,0,1.157-.874V31.849h.733v3.978a1.7,1.7,0,0,1-1.89,1.439,1.758,1.758,0,0,1-1.721-.931,2.859,2.859,0,0,1-.113-.508V31.849H2.2Zm64.517.367a.408.408,0,0,1-.423.451.431.431,0,0,1-.423-.423.374.374,0,0,1,.423-.423.379.379,0,0,1,.423.395Zm-55.236,0a.463.463,0,0,1-.451.451.431.431,0,0,1-.423-.423.414.414,0,0,1,.423-.423.4.4,0,0,1,.451.395Zm17.49.874a1.179,1.179,0,0,1-.762,1.072l-.028.056A1.35,1.35,0,0,1,29.31,35.63c0,.056-.056.31-.085.451-.085.621-1.072,1.1-1.552,1.1H25.925V31.793h1.326c.762,0,1.721.226,1.721,1.3Zm28.436-1.326,2.031,5.416h-.818c-.113-.367-.254-.762-.4-1.128H56.308a9.18,9.18,0,0,0-.423,1.128h-.818c.705-1.805,1.439-3.611,2.144-5.416Zm4.824.028a4.472,4.472,0,0,1-.226.508c-.084,0-.282-.056-.367-.056a.771.771,0,0,0-.734.846c0,.056.028.113.028.2h.79v.564h-.79v3.329h-.677V33.852h-.564v-.564h.564c-.028-.931.451-1.608,1.326-1.608a5.235,5.235,0,0,1,.649.113Zm-15.883,0-.169.508a2.212,2.212,0,0,0-.395-.056.782.782,0,0,0-.733.649v.395h.818v.564h-.818v3.329h-.677V33.852h-.564v-.564h.564c0-.959.48-1.608,1.326-1.608a3.921,3.921,0,0,1,.649.113Zm-7.589-.113v3.357l1.467-1.749h.818l-1.213,1.467,1.5,2.426h-.762l-1.213-1.946c-.169.2-.395.423-.592.621v1.326h-.705v-5.5Zm-16.136,0v5.5h-.677a.782.782,0,0,0-.028-.254,1.59,1.59,0,0,1-1.016.31,1.7,1.7,0,0,1-1.664-1.918A2.008,2.008,0,0,1,21.045,33.2a1.91,1.91,0,0,1,.9.254V31.68Zm3.526-13.315c1.664.367,2.4,1.3,2.4,2.6a4.529,4.529,0,0,1-.113.874,2.659,2.659,0,0,1-.508.875,5.243,5.243,0,0,1-3.413,1.918H21.694c.451-2.059.846-4.175,1.3-6.206,0-.056.028-.085.085-.113l2.144-.056c.056,0,.621.056.931.113Zm18.7,2.37H39.748l3.724-5.7ZM29.028,13.315c0,.056-.113.592-.141.875a2.96,2.96,0,0,1-1.382,1.946,11.276,11.276,0,0,1-1.608.846H23.386c.085-.451.169-.931.254-1.382.056-.282.141-.592.169-.874.056-.282.141-.592.169-.875.056-.282.141-.592.169-.874.056-.282.08-.437.141-.875.061-.5.024-.522.31-.508l2.116-.056c.9,0,2.313.48,2.313,1.777ZM45.785,9.309l4.231,17.406H46.208L45.531,23.3H38.168l-2.257,3.413H32.752L44.544,9.309h1.241Zm-16.842,0c2.539.282,3.724,1.467,3.724,3.442,0,2.116-1.467,3.7-4.034,4.542a.17.17,0,0,0,.113.028c1.89.282,3.244,1.382,3.244,3.1,0,2.736-1.693,5.275-5.36,6.093a15.772,15.772,0,0,1-1.693.254H17.744L21.383,9.309Zm-22.935,0c-.282,1.5-.592,2.906-.875,4.316-.226,1.044-.451,2.144-.649,3.216a26.922,26.922,0,0,0-.733,4.683c0,1.721.564,3.272,2.793,3.272a5.107,5.107,0,0,0,4.937-4.288c.875-3.724,1.608-7.476,2.4-11.2H17.1v.085c-.9,4.09-1.749,8.181-2.68,12.243a5.977,5.977,0,0,1-1.1,2,8.079,8.079,0,0,1-5.9,3.329c-.226.028-.621.085-.705.085H4.993c-.339-.028-.705-.085-1.016-.141s-.649-.141-.959-.226A4.185,4.185,0,0,1,0,22.512v-.677c.028-.2.028-.423.056-.649.818-3.949,1.636-7.927,2.454-11.876h3.5ZM64.488,26.6c-.451.056-1.326.169-1.411.169H56.054L60.793,4.514c2.482,4.852,4.965,9.761,7.419,14.669a9.457,9.457,0,0,1,.818,3.329c0,2.454-1.721,3.639-4.542,4.091Zm10.1-4.344c-1.439-2.793-2.877-5.614-4.288-8.407-.79-1.552-1.58-3.16-2.37-4.683-.254-.536-.536-1.016-.762-1.523a11.1,11.1,0,0,1-.818-3.1V3.949a4.359,4.359,0,0,1,.141-.875C67.338.4,70.469.141,72.331,0h7.024Z" transform="translate(0)"/></svg>