<svg width="51" height="51" viewBox="0 0 51 51" fill="none" xmlns="http://www.w3.org/2000/svg">
<path d="M16.4156 9.32344C11.7938 9.32344 7.96875 13.0687 7.96875 17.7703C7.96875 22.3922 11.7141 26.2172 16.4156 26.2172C21.0375 26.2172 24.8625 22.4719 24.8625 17.7703C24.8625 13.0687 21.1172 9.32344 16.4156 9.32344ZM16.4156 24.5437C12.6703 24.5437 9.5625 21.4359 9.5625 17.6906C9.5625 13.8656 12.6703 10.8375 16.4156 10.8375C20.2406 10.8375 23.2688 13.9453 23.2688 17.6906C23.2688 21.5156 20.2406 24.5437 16.4156 24.5437Z" fill="black"/>
<path d="M23.2688 17.6906C23.2688 21.5156 20.1609 24.5437 16.4156 24.5437C12.6703 24.5437 9.5625 21.4359 9.5625 17.6906C9.5625 13.8656 12.6703 10.8375 16.4156 10.8375C20.2406 10.8375 23.2688 13.9453 23.2688 17.6906Z" fill="#7187A0"/>
<path d="M21.7547 22.0734C20.4797 23.5875 18.5672 24.6234 16.4156 24.6234C12.6703 24.6234 9.5625 21.5156 9.5625 17.7703C9.5625 15.6187 10.5984 13.7063 12.1125 12.4313C11.1562 13.5469 10.5984 15.0609 10.5984 16.7344C10.5984 20.5594 13.7062 23.5875 17.4516 23.5875C19.125 23.5875 20.5594 23.0297 21.7547 22.0734Z" fill="#506C87"/>
<path d="M22.6312 20.7188C22.3922 21.1969 22.1531 21.5953 21.8344 21.9938C20.639 22.95 19.125 23.5078 17.5312 23.5078C13.7859 23.5078 10.6781 20.4 10.6781 16.6547C10.6781 14.9812 11.2359 13.5469 12.1922 12.3516C12.5906 12.0328 12.989 11.7141 13.4672 11.5547C12.989 12.4313 12.75 13.4672 12.75 14.5828C12.75 18.4078 15.8578 21.4359 19.6031 21.4359C20.639 21.4359 21.675 21.1969 22.6312 20.7188Z" fill="#5E7891"/>
<path d="M16.4156 27.6516C7.41094 27.6516 0 34.9828 0 44.0672C0 44.4656 0.31875 44.8641 0.796875 44.8641H32.1141C32.5125 44.8641 32.9109 44.5453 32.9109 44.0672C32.9109 34.9828 25.5 27.6516 16.4156 27.6516ZM1.59375 43.35C1.99219 35.4609 8.52656 29.1656 16.4953 29.1656C24.4641 29.1656 30.9984 35.4609 31.3969 43.35H1.59375Z" fill="black"/>
<path d="M31.3172 43.35H1.59375C1.99219 35.4609 8.52656 29.1656 16.4953 29.1656C24.3844 29.1656 30.9187 35.4609 31.3172 43.35Z" fill="#7187A0"/>
<path d="M31.3172 43.35H1.59375C1.9125 37.7719 5.25938 32.9109 10.0406 30.6797C6.77344 32.9109 4.4625 36.4969 3.825 40.5609C3.66563 41.3578 4.38281 42.1547 5.17969 42.1547H31.2375C31.2375 42.4734 31.3172 42.8719 31.3172 43.35Z" fill="#506C87"/>
<path d="M31.2375 42.075H5.17966C4.3031 42.075 3.6656 41.3578 3.82497 40.4813C4.46247 36.4172 6.77341 32.8313 10.0406 30.6C10.5984 30.3609 11.1562 30.1219 11.714 29.9625C9.56247 32.1141 8.04841 34.9828 7.57028 38.1703C7.41091 38.9672 8.1281 39.7641 8.92497 39.7641H30.6797C30.9187 40.4813 31.0781 41.2781 31.2375 42.075Z" fill="#5E7891"/>
<path d="M49.8843 13.4672C49.8843 13.3875 49.8844 13.3875 49.8047 13.3875C47.8125 9.08437 43.589 6.13594 38.5687 6.13594C31.7156 6.13594 26.2172 11.7141 26.2172 18.4875C26.2172 25.3406 31.7953 30.8391 38.5687 30.8391C41.9953 30.8391 45.0234 29.4844 47.2547 27.2531C49.4859 25.0219 50.8406 21.9141 50.8406 18.4875C51 16.7344 50.6015 14.9812 49.8843 13.4672ZM39.3656 7.72969C43.1109 7.96875 46.3781 10.2 48.1312 13.3875L39.3656 17.2922V7.72969ZM38.6484 29.325C32.6718 29.325 27.8109 24.4641 27.8109 18.4875C27.8109 12.75 32.2734 8.12812 37.8515 7.72969V18.4875V18.5672C37.8515 18.6469 37.8515 18.7266 37.8515 18.7266V18.8063C37.8515 18.8859 37.9312 18.9656 38.0109 18.9656L45.6609 26.6156C43.8281 28.2891 41.3578 29.325 38.6484 29.325ZM46.7765 25.5797L39.9234 18.7266L48.7687 14.7422C49.1672 15.9375 49.4859 17.1328 49.4859 18.4875C49.4859 21.1969 48.45 23.6672 46.7765 25.5797Z" fill="black"/>
<path d="M45.6609 26.6953C43.7484 28.3687 41.2781 29.325 38.5688 29.325C32.5922 29.325 27.7313 24.4641 27.7313 18.4875C27.7313 12.75 32.1938 8.12812 37.7719 7.72969V18.4875V18.5672C37.7719 18.6469 37.7719 18.7266 37.7719 18.7266V18.8062C37.7719 18.8859 37.8516 18.9656 37.9313 18.9656L45.6609 26.6953Z" fill="#54BF9E"/>
<path d="M48.1312 13.3875L39.3656 17.2922V7.72969C43.1906 7.96875 46.4578 10.2 48.1312 13.3875Z" fill="#EDECED"/>
<path d="M49.4859 18.4875C49.4859 21.1969 48.45 23.6672 46.8562 25.5797L40.0031 18.7266L48.8484 14.7422C49.2469 15.9375 49.4859 17.2125 49.4859 18.4875Z" fill="#F2776B"/>
<path d="M45.6609 26.6953C43.7484 28.3688 41.2781 29.325 38.5688 29.325C32.5922 29.325 27.7313 24.4641 27.7313 18.4875C27.7313 15.3 29.1656 12.3516 31.3969 10.4391C29.7235 12.3516 28.6875 14.9016 28.6875 17.6109C28.6875 23.5875 33.5484 28.4484 39.525 28.4484C41.7563 28.4484 43.8281 27.7312 45.5813 26.5359L45.6609 26.6953Z" fill="#39A580"/>
<path d="M45.5812 26.5359C43.8281 27.7313 41.7562 28.4484 39.525 28.4484C33.5484 28.4484 28.6875 23.5875 28.6875 17.6109C28.6875 14.8219 29.7234 12.3516 31.3969 10.4391C31.7156 10.1203 32.0344 9.88125 32.4328 9.64219C31.2375 11.3953 30.5203 13.4672 30.5203 15.7781C30.5203 21.7547 35.3813 26.6156 41.3578 26.6156C42.6328 26.6156 43.8281 26.3766 44.9438 25.9781L45.5812 26.5359Z" fill="#44B18D"/>
<path d="M40.5609 7.88906V16.7344L39.3656 17.2922V7.72969C39.764 7.72969 40.2422 7.80937 40.5609 7.88906Z" fill="#BFBEBC"/>
<path d="M42.4734 8.44688V15.9375L40.5609 16.7344V7.88906C41.2781 7.96875 41.9156 8.20781 42.4734 8.44688Z" fill="#D5D6D5"/>
<path d="M47.5735 24.6234C47.3344 24.9422 47.0953 25.2609 46.7766 25.5797L39.9235 18.7266L41.1188 18.1687L47.5735 24.6234Z" fill="#DA5B57"/>
<path d="M48.5297 22.7906C48.2907 23.4281 47.8922 24.0656 47.4938 24.6234L41.1188 18.2484L43.111 17.3719L48.5297 22.7906Z" fill="#E8625C"/>
</svg>
