<svg width="51" height="51" viewBox="0 0 51 51" fill="none" xmlns="http://www.w3.org/2000/svg">
<path d="M45.7183 43.0312C48 39.4149 49.27 35.2527 49.3959 30.9785C49.5218 26.7044 48.499 22.4747 46.4341 18.7303C44.3691 14.9859 41.3377 11.8639 37.6558 9.68963C33.9738 7.51538 29.776 6.36848 25.5 6.36848C21.224 6.36848 17.0262 7.51538 13.3443 9.68963C9.66228 11.8639 6.63086 14.9859 4.56595 18.7303C2.50104 22.4747 1.47823 26.7044 1.60411 30.9785C1.73 35.2527 2.99998 39.4149 5.28169 43.0312H45.7183Z" fill="#F3F8FF"/>
<path opacity="0.15" d="M25.5 6.375C21.9797 6.37172 18.5024 7.14752 15.3173 8.64677C12.1323 10.146 9.31852 12.3315 7.07782 15.0466C11.2192 11.6169 16.3962 9.68414 21.772 9.56078C27.1477 9.43742 32.408 11.1307 36.7023 14.3668C40.9967 17.6029 44.0742 22.1927 45.4372 27.3942C46.8002 32.5958 46.3692 38.105 44.2138 43.0312H45.7183C47.9999 39.4153 49.2699 35.2535 49.3957 30.9797C49.5215 26.7059 48.4985 22.4767 46.4335 18.7328C44.3685 14.9889 41.3371 11.8674 37.6551 9.69386C33.9732 7.52029 29.7756 6.37418 25.5 6.375Z" fill="black"/>
<path d="M12.099 17.9647C12.008 17.8381 11.9572 17.6871 11.9531 17.5312C11.953 17.3922 11.9893 17.2555 12.0584 17.1348C12.1275 17.0141 12.227 16.9136 12.347 16.8432C12.4669 16.7729 12.6032 16.7352 12.7423 16.7338C12.8814 16.7325 13.0184 16.7676 13.1397 16.8356L28.0795 26.2546C28.6753 26.6354 29.1793 27.1436 29.5551 27.7426C29.9308 28.3416 30.1691 29.0165 30.2526 29.7186C30.3362 30.4208 30.2629 31.1327 30.0382 31.8032C29.8134 32.4736 29.4427 33.0859 28.9529 33.5958C28.463 34.1057 27.8661 34.5007 27.2052 34.7522C26.5444 35.0036 25.8359 35.1054 25.131 35.0501C24.426 34.9948 23.7421 34.7838 23.1285 34.4324C22.5149 34.081 21.9869 33.5978 21.5826 33.0177L12.099 17.9647Z" fill="#FF6666"/>
<path opacity="0.15" d="M25.5 35.0625C24.7305 35.0628 23.9724 34.8771 23.2903 34.521C22.6081 34.165 22.0222 33.6492 21.5826 33.0177L14.3071 21.4694L10.749 19.2262C10.6277 19.1582 10.4907 19.1231 10.3517 19.1245C10.2126 19.1258 10.0763 19.1635 9.95633 19.2339C9.83636 19.3042 9.73688 19.4047 9.66779 19.5254C9.5987 19.6461 9.5624 19.7828 9.5625 19.9219C9.56656 20.0777 9.61737 20.2288 9.70833 20.3554L19.1919 35.4083C19.6749 36.1013 20.3331 36.6538 21.0992 37.0094C21.8654 37.365 22.7122 37.5111 23.5532 37.4327C24.3943 37.3543 25.1994 37.0542 25.8867 36.563C26.5739 36.0719 27.1185 35.4073 27.4651 34.637C26.8479 34.9173 26.1779 35.0624 25.5 35.0625Z" fill="black"/>
<path d="M1.59375 30.2812H7.96875H1.59375ZM25.5 6.375V12.75V6.375ZM43.0312 30.2812H49.4062H43.0312ZM38.25 17.5312L42.4041 13.3771L38.25 17.5312ZM12.099 17.9647C12.008 17.8381 11.9572 17.6871 11.9531 17.5312C11.953 17.3922 11.9893 17.2555 12.0584 17.1348C12.1275 17.0141 12.227 16.9136 12.347 16.8432C12.4669 16.7729 12.6032 16.7352 12.7423 16.7338C12.8814 16.7325 13.0184 16.7676 13.1397 16.8356L28.0795 26.2546C28.6753 26.6354 29.1793 27.1436 29.5551 27.7426C29.9308 28.3416 30.1691 29.0165 30.2526 29.7186C30.3362 30.4208 30.2629 31.1327 30.0382 31.8032C29.8134 32.4736 29.4427 33.0859 28.9529 33.5958C28.463 34.1057 27.8661 34.5007 27.2052 34.7522C26.5444 35.0036 25.8359 35.1054 25.131 35.0501C24.426 34.9948 23.7421 34.7838 23.1285 34.4324C22.5149 34.081 21.9869 33.5978 21.5826 33.0177L12.099 17.9647Z" stroke="#2E4369" stroke-linecap="round" stroke-linejoin="round"/>
<path d="M45.7183 43.0312C48 39.4149 49.27 35.2527 49.3959 30.9785C49.5218 26.7044 48.499 22.4747 46.4341 18.7303C44.3691 14.9859 41.3377 11.8639 37.6558 9.68963C33.9738 7.51538 29.776 6.36848 25.5 6.36848C21.224 6.36848 17.0262 7.51538 13.3443 9.68963C9.66228 11.8639 6.63086 14.9859 4.56595 18.7303C2.50104 22.4747 1.47823 26.7044 1.60411 30.9785C1.73 35.2527 2.99998 39.4149 5.28169 43.0312H45.7183Z" stroke="#2E4369" stroke-linecap="round" stroke-linejoin="round"/>
</svg>
