<svg xmlns="http://www.w3.org/2000/svg" width="47.786" height="40.831" viewBox="0 0 47.786 40.831"><defs><style>.a{fill:#777;}</style></defs><path class="a" d="M590.426,271.564l-27.831-.741c-.188,1.7-.348,3.364-.557,5.019-.817,6.449-1.849,12.852-4.261,18.943-.141.356-.312.7-.468,1.052a.948.948,0,0,1-1.353.606c-.624-.279-.712-.8-.436-1.41a47.528,47.528,0,0,0,3.425-12.059c.68-4.248,1.135-8.533,1.658-12.806.132-1.074.351-1.365,1.428-1.336q12.926.346,25.85.709c1.181.032,2.363.024,3.543.064a1.075,1.075,0,0,1,1.17,1.31,160.813,160.813,0,0,1-4.361,26.335,31.793,31.793,0,0,1-3.711,9.153,12.85,12.85,0,0,1-1.7,2.027,4.085,4.085,0,0,1-3.208,1.226c-1.267-.057-2.538-.058-3.807-.07-6.85-.064-13.7-.178-20.55-.162a8.909,8.909,0,0,1-8.262-4.675,29.38,29.38,0,0,1-2.058-4.773c-.36-.991.128-1.53,1.2-1.508q12.884.27,25.767.555a1.417,1.417,0,0,1,1.3.868c.951,1.7,1.914,3.39,2.961,5.028a9.228,9.228,0,0,0,1.665,1.824c1.476,1.321,3.072,1.293,4.2-.3a23.871,23.871,0,0,0,2.678-4.853,70.638,70.638,0,0,0,3.889-15.416c.715-4.513,1.228-9.058,1.822-13.591A8.929,8.929,0,0,0,590.426,271.564Zm-14.919,36c-1.129-1.811-2.339-3.584-3.358-5.461a1.915,1.915,0,0,0-1.919-1.143c-6.312-.108-12.624-.262-18.935-.39-1.349-.027-2.7,0-4.04,0,.75,3.146,3.485,7.087,7.621,6.812.614-.041,1.236.077,1.854.083q6.55.06,13.1.1C571.744,307.576,573.656,307.566,575.507,307.566Z" transform="translate(-544.817 -268.831)"/><path class="a" d="M674.02,319.257l11.319.412c.088,0,.177,0,.265.012.806.073,1.3.5,1.205,1.11-.106.722-.617.946-1.286.918-1.5-.063-3-.122-4.507-.186-3.359-.145-6.717-.3-10.076-.436-.7-.028-1.283-.216-1.25-1.026s.634-.979,1.326-.945Z" transform="translate(-647.557 -310.2)"/><path class="a" d="M665.037,358.072l12.8.528a3.271,3.271,0,0,1,.439.039c.576.1,1.027.361.992,1.026-.038.7-.521.972-1.147.956-1.649-.043-3.3-.122-4.945-.19q-4.017-.167-8.033-.341a3.51,3.51,0,0,1-1.305-.137,1.619,1.619,0,0,1-.839-.929c-.123-.564.316-.918.888-.978a11.109,11.109,0,0,1,1.148-.007Z" transform="translate(-642.039 -342.219)"/><path class="a" d="M657.535,400.217c-1.267,0-2.534,0-3.8,0-.7,0-1.232-.259-1.309-1.022-.06-.6.471-1,1.3-.986,2.592.047,5.185.111,7.777.175.675.017,1.16.3,1.147,1.046-.013.716-.527.96-1.136.972-1.325.027-2.65.008-3.976.008Z" transform="translate(-633.35 -375.279)"/></svg>