<svg xmlns="http://www.w3.org/2000/svg" width="87.378" height="87.378" viewBox="0 0 87.378 87.378">
  <g id="Group_990" data-name="Group 990" transform="translate(-2 -2)">
    <path id="Path_1015" data-name="Path 1015" d="M36.107,20l-4.05,8.629L23,30.012l6.553,6.718-1.547,9.483,8.1-4.478,8.1,4.478L42.66,36.73l6.553-6.718-9.057-1.383Z" transform="translate(9.582 8.213)" fill="#ecf5fd"/>
    <path id="Path_1016" data-name="Path 1016" d="M60.514,12.456a5.787,5.787,0,0,0-4.5,2.17A30.583,30.583,0,0,0,24.761,67.132l1.6-2.431A27.668,27.668,0,0,1,54.789,17.28a5.755,5.755,0,0,0,5.725,6.827,5.766,5.766,0,0,0,2.155-.424A27.658,27.658,0,0,1,56.163,65.1L57.7,67.576a30.559,30.559,0,0,0,7.3-45.629,5.794,5.794,0,0,0-4.493-9.491Z" transform="translate(4.107 4.107)" fill="#ecf5fd"/>
    <path id="Path_1017" data-name="Path 1017" d="M9.281,74.815a5.815,5.815,0,0,0,9.01,4.868,43.819,43.819,0,0,0,9.317,5.792l1.209-2.65a40.8,40.8,0,0,1-8.578-5.311,5.761,5.761,0,0,0,.692-2.7,5.8,5.8,0,0,0-8.269-5.272,40.259,40.259,0,0,1-7.75-23.854,40.748,40.748,0,0,1,8.964-25.442,5.792,5.792,0,0,0,7.959-7.584,40.252,40.252,0,0,1,23.854-7.75A40.823,40.823,0,0,1,86.465,45.689a40.055,40.055,0,0,1-4.1,17.767,5.759,5.759,0,0,0-1.729-.291,5.8,5.8,0,0,0-4.448,9.546A41.074,41.074,0,0,1,62.56,82.826l1.209,2.649a43.975,43.975,0,0,0,14.8-11.058,5.807,5.807,0,0,0,6.29-9.43A43.643,43.643,0,0,0,45.689,2a43.138,43.138,0,0,0-25.707,8.41,5.811,5.811,0,0,0-8.3,7.868A43.689,43.689,0,0,0,2,45.689,43.141,43.141,0,0,0,10.41,71.4,5.781,5.781,0,0,0,9.281,74.815Z" fill="#ecf5fd"/>
    <circle id="Ellipse_61" data-name="Ellipse 61" cx="7" cy="7" r="7" transform="translate(38.689 57.689)" fill="#ecf5fd"/>
    <path id="Path_1018" data-name="Path 1018" d="M24,55.825v11.65H47.3V55.825C47.3,52.608,44.982,50,42.122,50H29.179C26.318,50,24,52.608,24,55.825Z" transform="translate(10.039 21.902)" fill="#ecf5fd"/>
  </g>
</svg>
