<svg xmlns="http://www.w3.org/2000/svg" xmlns:xlink="http://www.w3.org/1999/xlink" width="143" height="136.137" viewBox="0 0 143 136.137"><defs><style>.a{fill:#e0e0e0;}.b,.l,.m,.n,.o{opacity:0.5;}.c{fill:url(#a);}.d{fill:#fafafa;}.e{fill:url(#b);}.f{fill:url(#c);}.g{fill:#777;}.h{fill:url(#d);}.i{fill:#fff;}.j{fill:url(#f);}.k,.o{fill:#47e6b1;}.l{fill:#4d8af0;}.m{fill:#fdd835;}.n{fill:#f55f44;}</style><linearGradient id="a" x1="0.509" y1="0.997" x2="0.509" y2="-0.003" gradientUnits="objectBoundingBox"><stop offset="0" stop-color="gray" stop-opacity="0.251"/><stop offset="0.54" stop-color="gray" stop-opacity="0.122"/><stop offset="1" stop-color="gray" stop-opacity="0.102"/></linearGradient><linearGradient id="b" x1="0.813" y1="0.841" x2="0.813" y2="-0.159" xlink:href="#a"/><linearGradient id="c" x1="1.78" y1="0.849" x2="1.78" y2="-0.151" xlink:href="#a"/><linearGradient id="d" x1="0.5" y1="1" x2="0.5" y2="0" xlink:href="#a"/><linearGradient id="f" x1="0.5" y1="0.999" x2="0.5" y2="-0.001" xlink:href="#a"/></defs><rect class="a" width="76.196" height="105.278" transform="matrix(0.978, -0.21, 0.21, 0.978, 12.052, 23.623)"/><g class="b" transform="translate(13.685 9.649)"><rect class="c" width="73.621" height="101.72" transform="matrix(0.978, -0.21, 0.21, 0.978, 0, 15.445)"/></g><rect class="d" width="71.747" height="99.473" transform="matrix(0.978, -0.21, 0.21, 0.978, 14.757, 25.629)"/><rect class="e" width="35.593" height="8.622" transform="matrix(0.978, -0.21, 0.21, 0.978, 31.619, 17.601)"/><path class="f" d="M442.4,91.382a5.095,5.095,0,1,0,5.928,3.937A5.035,5.035,0,0,0,442.4,91.382Zm1.686,7.863a2.94,2.94,0,1,1,2.19-3.487,2.9,2.9,0,0,1-2.19,3.487Z" transform="translate(-395.148 -85.749)"/><rect class="g" width="34.843" height="8.242" transform="matrix(0.978, -0.21, 0.21, 0.978, 31.908, 17.16)"/><path class="g" d="M442.7,91.382a4.87,4.87,0,1,0,5.783,3.74A4.87,4.87,0,0,0,442.7,91.382Zm1.611,7.515a2.811,2.811,0,1,1,2.159-3.337,2.811,2.811,0,0,1-2.159,3.337Z" transform="translate(-395.453 -85.748)"/><rect class="a" width="76.196" height="105.278" transform="translate(44.964 20.384)"/><g class="b" transform="translate(46.253 22.164)"><rect class="h" width="73.621" height="101.72"/></g><rect class="i" width="71.747" height="99.473" transform="translate(47.189 22.914)"/><rect class="h" width="35.593" height="8.622" transform="translate(65.36 18.6)"/><path class="j" d="M643.3,118a5.1,5.1,0,1,0,4.976,5.095A5.036,5.036,0,0,0,643.3,118Zm0,8.034a2.94,2.94,0,1,1,2.87-2.94,2.9,2.9,0,0,1-2.87,2.926Z" transform="translate(-560.14 -107.816)"/><rect class="g" width="34.843" height="8.242" transform="translate(65.735 18.23)"/><path class="g" d="M643.8,118a4.87,4.87,0,1,0,4.87,4.87A4.87,4.87,0,0,0,643.8,118Zm0,7.68a2.813,2.813,0,1,0,0-.009Z" transform="translate(-560.643 -107.816)"/><g class="b" transform="translate(1.132 128.508)"><rect class="k" width="0.656" height="3.719" transform="translate(1.531)"/><rect class="k" width="0.656" height="3.719" transform="translate(3.719 1.533) rotate(90)"/></g><g class="b" transform="translate(77.188)"><rect class="k" width="0.656" height="3.719" transform="translate(1.531)"/><rect class="k" width="0.656" height="3.719" transform="translate(3.719 1.531) rotate(90)"/></g><path class="l" d="M948.277,825.108a.8.8,0,0,1-.448-.971.385.385,0,0,0,.017-.089h0a.4.4,0,0,0-.724-.267h0a.385.385,0,0,0-.045.078.8.8,0,0,1-.971.448.383.383,0,0,0-.089-.017h0a.4.4,0,0,0-.267.724h0a.388.388,0,0,0,.078.045.8.8,0,0,1,.448.971.39.39,0,0,0-.017.089h0a.4.4,0,0,0,.724.267h0a.393.393,0,0,0,.045-.078.8.8,0,0,1,.971-.448.394.394,0,0,0,.089.017h0a.4.4,0,0,0,.267-.724h0A.386.386,0,0,0,948.277,825.108Z" transform="translate(-813.836 -690.409)"/><path class="m" d="M313.867,620.048a.8.8,0,0,1-.448-.971.387.387,0,0,0,.017-.089h0a.4.4,0,0,0-.724-.267h0a.387.387,0,0,0-.045.078.8.8,0,0,1-.971.448.388.388,0,0,0-.089-.017h0a.4.4,0,0,0-.267.724h0a.388.388,0,0,0,.078.045.8.8,0,0,1,.448.971.387.387,0,0,0-.017.089h0a.4.4,0,0,0,.724.267h0a.387.387,0,0,0,.045-.078.8.8,0,0,1,.971-.448.387.387,0,0,0,.089.017h0a.4.4,0,0,0,.267-.724h0A.389.389,0,0,0,313.867,620.048Z" transform="translate(-290.039 -521.102)"/><path class="m" d="M842.277,120.728a.8.8,0,0,1-.448-.971.387.387,0,0,0,.017-.089h0a.4.4,0,0,0-.724-.267h0a.389.389,0,0,0-.045.078.8.8,0,0,1-.971.448.388.388,0,0,0-.089-.017h0a.4.4,0,0,0-.267.724h0a.385.385,0,0,0,.078.045.8.8,0,0,1,.448.971.384.384,0,0,0-.017.089h0a.4.4,0,0,0,.724.267h0a.389.389,0,0,0,.045-.078.8.8,0,0,1,.971-.448.388.388,0,0,0,.089.017h0a.4.4,0,0,0,.267-.724h0A.387.387,0,0,0,842.277,120.728Z" transform="translate(-726.318 -108.841)"/><circle class="n" cx="1.313" cy="1.313" r="1.313" transform="translate(140.374 53.516)"/><circle class="n" cx="1.313" cy="1.313" r="1.313" transform="translate(38.916 128.869)"/><circle class="n" cx="1.313" cy="1.313" r="1.313" transform="translate(126.891 81.894)"/><circle class="l" cx="1.313" cy="1.313" r="1.313" transform="translate(13.88 15.486)"/><circle class="o" cx="1.313" cy="1.313" r="1.313" transform="translate(0 51.3)"/></svg>